<?xml version="1.0" encoding="UTF-8"?>
<svg version="1.0" xmlns="http://www.w3.org/2000/svg"
 width="50px" height="50px" viewBox="0 0 96.000000 96.000000"
 preserveAspectRatio="xMidYMid meet">
    <title>Emoji Reactions</title>
    <g transform="translate(0.000000,96.000000) scale(0.100000,-0.100000)"
    fill="#5D63F1" stroke="none">
        <path d="M180 582 c0 -12 5 -24 10 -27 6 -3 10 -18 10 -32 0 -69 59 -123 135
        -123 68 0 110 36 125 105 3 17 12 30 20 30 8 0 17 -13 20 -30 15 -69 57 -105
        125 -105 76 0 135 54 135 123 0 14 5 29 10 32 6 3 10 15 10 27 0 19 -4 20
        -127 14 -71 -4 -148 -7 -173 -7 -25 0 -102 3 -172 7 -124 6 -128 5 -128 -14z"/>
        <path d="M300 357 c0 -9 16 -29 36 -45 84 -70 208 -68 291 3 47 41 41 64 -8
        31 -90 -61 -190 -58 -291 8 -24 16 -28 16 -28 3z"/>
    </g>
</svg>
